<svg width="81" height="23" viewBox="0 0 81 23" fill="none" xmlns="http://www.w3.org/2000/svg">
<path d="M1.5 9.54596C0.671573 9.54596 0 10.2175 0 11.046C0 11.8744 0.671573 12.546 1.5 12.546V11.046V9.54596ZM80.5607 12.1066C81.1464 11.5208 81.1464 10.5711 80.5607 9.9853L71.0147 0.439358C70.4289 -0.146429 69.4792 -0.146429 68.8934 0.439358C68.3076 1.02514 68.3076 1.97489 68.8934 2.56068L77.3787 11.046L68.8934 19.5312C68.3076 20.117 68.3076 21.0668 68.8934 21.6526C69.4792 22.2383 70.4289 22.2383 71.0147 21.6526L80.5607 12.1066ZM1.5 11.046V12.546H79.5V11.046V9.54596H1.5V11.046Z" fill="#C8C8C8"/>
</svg>
