<svg width="239" height="72" viewBox="0 0 239 72" fill="none" xmlns="http://www.w3.org/2000/svg">
<path d="M0 71L227 71" stroke="black" stroke-width="2"/>
<path d="M42.784 63.64C40.3093 63.64 38.1973 63.192 36.448 62.296C34.7413 61.3573 33.44 60.0987 32.544 58.52C31.648 56.8987 31.2 55.0853 31.2 53.08C31.2 49.7093 32.1813 47.2773 34.144 45.784C36.1493 44.2907 39.008 43.544 42.72 43.544H53.728V41.24C53.728 38.3387 53.0667 36.3333 51.744 35.224C50.464 34.1147 48.5227 33.56 45.92 33.56C43.488 33.56 41.7173 34.0293 40.608 34.968C39.4987 35.864 38.88 36.888 38.752 38.04H33.12C33.248 36.2053 33.8667 34.584 34.976 33.176C36.0853 31.7253 37.6 30.5733 39.52 29.72C41.44 28.8667 43.68 28.44 46.24 28.44C48.928 28.44 51.2533 28.8667 53.216 29.72C55.1787 30.5307 56.6933 31.832 57.76 33.624C58.8267 35.3733 59.36 37.6987 59.36 40.6V54.36C59.36 56.152 59.36 57.7307 59.36 59.096C59.4027 60.4187 59.5093 61.72 59.68 63H54.752C54.624 62.0187 54.5387 61.1013 54.496 60.248C54.4533 59.352 54.432 58.3493 54.432 57.24C53.536 59.032 52.0853 60.5467 50.08 61.784C48.0747 63.0213 45.6427 63.64 42.784 63.64ZM44 58.52C45.792 58.52 47.4133 58.2 48.864 57.56C50.3573 56.92 51.5307 55.9813 52.384 54.744C53.28 53.5067 53.728 51.992 53.728 50.2V47.896H43.68C41.5893 47.896 39.9467 48.3227 38.752 49.176C37.5573 49.9867 36.96 51.288 36.96 53.08C36.96 54.6587 37.5147 55.96 38.624 56.984C39.776 58.008 41.568 58.52 44 58.52ZM69.9475 63V29.08H75.5795V63H69.9475ZM72.7635 24.6C71.6542 24.6 70.7368 24.2373 70.0115 23.512C69.2862 22.7867 68.9235 21.8693 68.9235 20.76C68.9235 19.6507 69.2862 18.7333 70.0115 18.008C70.7368 17.2827 71.6542 16.92 72.7635 16.92C73.8728 16.92 74.7902 17.2827 75.5155 18.008C76.2408 18.7333 76.6035 19.6507 76.6035 20.76C76.6035 21.8693 76.2408 22.7867 75.5155 23.512C74.7902 24.2373 73.8728 24.6 72.7635 24.6ZM86.4325 63V29.08H91.6805V35.48C92.1925 34.1147 92.8965 32.92 93.7925 31.896C94.6885 30.8293 95.7765 29.9973 97.0565 29.4C98.3792 28.76 99.8512 28.44 101.473 28.44C102.326 28.44 103.009 28.4827 103.521 28.568C104.075 28.6533 104.566 28.76 104.993 28.888V34.136C104.438 33.9227 103.883 33.7733 103.329 33.688C102.817 33.6027 102.091 33.56 101.153 33.56C99.4458 33.56 97.9098 33.9653 96.5445 34.776C95.1792 35.5867 94.0912 36.7173 93.2805 38.168C92.4698 39.576 92.0645 41.24 92.0645 43.16V63H86.4325Z" fill="black"/>
<path d="M134.784 63.64C132.309 63.64 130.197 63.192 128.448 62.296C126.741 61.3573 125.44 60.0987 124.544 58.52C123.648 56.8987 123.2 55.0853 123.2 53.08C123.2 49.7093 124.181 47.2773 126.144 45.784C128.149 44.2907 131.008 43.544 134.72 43.544H145.728V41.24C145.728 38.3387 145.067 36.3333 143.744 35.224C142.464 34.1147 140.523 33.56 137.92 33.56C135.488 33.56 133.717 34.0293 132.608 34.968C131.499 35.864 130.88 36.888 130.752 38.04H125.12C125.248 36.2053 125.867 34.584 126.976 33.176C128.085 31.7253 129.6 30.5733 131.52 29.72C133.44 28.8667 135.68 28.44 138.24 28.44C140.928 28.44 143.253 28.8667 145.216 29.72C147.179 30.5307 148.693 31.832 149.76 33.624C150.827 35.3733 151.36 37.6987 151.36 40.6V54.36C151.36 56.152 151.36 57.7307 151.36 59.096C151.403 60.4187 151.509 61.72 151.68 63H146.752C146.624 62.0187 146.539 61.1013 146.496 60.248C146.453 59.352 146.432 58.3493 146.432 57.24C145.536 59.032 144.085 60.5467 142.08 61.784C140.075 63.0213 137.643 63.64 134.784 63.64ZM136 58.52C137.792 58.52 139.413 58.2 140.864 57.56C142.357 56.92 143.531 55.9813 144.384 54.744C145.28 53.5067 145.728 51.992 145.728 50.2V47.896H135.68C133.589 47.896 131.947 48.3227 130.752 49.176C129.557 49.9867 128.96 51.288 128.96 53.08C128.96 54.6587 129.515 55.96 130.624 56.984C131.776 58.008 133.568 58.52 136 58.52ZM173.148 63.64C170.886 63.64 168.924 63.384 167.26 62.872C165.596 62.3173 164.209 61.592 163.1 60.696C161.99 59.8 161.094 58.7547 160.411 57.56C159.772 56.3227 159.324 55.0427 159.068 53.72H164.7C164.998 55.0853 165.788 56.28 167.068 57.304C168.39 58.2853 170.417 58.776 173.148 58.776C176.305 58.776 178.502 58.2853 179.74 57.304C180.977 56.28 181.596 55.0853 181.596 53.72C181.596 52.7813 181.318 51.9707 180.764 51.288C180.252 50.5627 179.313 49.944 177.948 49.432C176.625 48.92 174.726 48.4933 172.252 48.152C170.374 47.896 168.689 47.5333 167.196 47.064C165.702 46.552 164.422 45.8907 163.356 45.08C162.289 44.2693 161.457 43.288 160.86 42.136C160.305 40.984 160.028 39.6187 160.028 38.04C160.028 36.3333 160.518 34.7547 161.5 33.304C162.481 31.8533 163.953 30.68 165.916 29.784C167.878 28.888 170.289 28.44 173.148 28.44C175.836 28.44 178.054 28.9093 179.804 29.848C181.596 30.744 182.982 31.9387 183.964 33.432C184.945 34.9253 185.606 36.568 185.948 38.36H180.316C179.974 36.8667 179.249 35.6507 178.14 34.712C177.03 33.7733 175.366 33.304 173.148 33.304C170.374 33.304 168.433 33.7733 167.324 34.712C166.214 35.608 165.66 36.7173 165.66 38.04C165.66 39.576 166.257 40.728 167.452 41.496C168.689 42.264 170.929 42.8613 174.172 43.288C176.262 43.544 178.118 43.928 179.74 44.44C181.361 44.9093 182.726 45.5707 183.836 46.424C184.945 47.2347 185.777 48.2373 186.332 49.432C186.929 50.6267 187.228 52.056 187.228 53.72C187.228 55.512 186.716 57.1547 185.692 58.648C184.668 60.1413 183.11 61.3573 181.02 62.296C178.972 63.192 176.348 63.64 173.148 63.64ZM195.245 63V18.2H200.877V44.696L216.493 29.08H223.405L209.325 43.096L224.685 63H217.517L205.293 47L200.877 51.16V63H195.245Z" fill="black"/>
<line x1="1" y1="18" x2="1" y2="63" stroke="#595959" stroke-width="2"/>
<line x1="2" y1="19.5" x2="29" y2="19.5" stroke="#00B4DD" stroke-width="3"/>
<line x1="2" y1="40.5" x2="27" y2="40.5" stroke="#00B4DD" stroke-width="3"/>
<line x1="2" y1="24" x2="13" y2="24" stroke="#C8C8C8" stroke-width="2"/>
<line x1="2" y1="28" x2="14" y2="28" stroke="#C8C8C8" stroke-width="2"/>
<line x1="2" y1="32" x2="12" y2="32" stroke="#C8C8C8" stroke-width="2"/>
<line x1="2" y1="36" x2="15" y2="36" stroke="#C8C8C8" stroke-width="2"/>
<line x1="2" y1="45" x2="15" y2="45" stroke="#C8C8C8" stroke-width="2"/>
<line x1="2" y1="49" x2="20" y2="49" stroke="#C8C8C8" stroke-width="2"/>
<line x1="2" y1="53" x2="14" y2="53" stroke="#C8C8C8" stroke-width="2"/>
<line x1="2" y1="57" x2="5" y2="57" stroke="#C8C8C8" stroke-width="2"/>
<line x1="114" y1="13" x2="114" y2="63" stroke="#FF5A00" stroke-width="4"/>
<line x1="91" y1="12" x2="136" y2="12" stroke="#FF5A00" stroke-width="4"/>
</svg>
