<svg width="185" height="50" viewBox="0 0 185 50" fill="none" xmlns="http://www.w3.org/2000/svg">
<path d="M142.628 22.9473C147.412 22.9473 151.291 19.0631 151.291 14.2716C151.291 9.48007 147.412 5.59579 142.628 5.59579C137.844 5.59579 133.966 9.48007 133.966 14.2716C133.966 19.0631 137.844 22.9473 142.628 22.9473Z" fill="#FF5A00"/>
<path d="M127.551 22.9546L134.524 7.14943C133.461 6.43153 132.254 5.95583 130.988 5.75587C129.722 5.55591 128.427 5.63656 127.196 5.99213C125.964 6.3477 124.825 6.96953 123.86 7.81379C122.894 8.65805 122.125 9.70418 121.607 10.8784C121.089 12.0527 120.834 13.3265 120.861 14.61C120.888 15.8935 121.196 17.1554 121.762 18.3069C122.329 19.4584 123.141 20.4714 124.141 21.2744C125.141 22.0774 126.305 22.651 127.551 22.9546Z" fill="#2ED0FF"/>
<path d="M114.575 22.9256L122.056 5.73374C121.664 5.68064 121.27 5.65396 120.874 5.65388C118.868 5.64852 116.909 6.26162 115.263 7.4099C113.617 8.55819 112.364 10.186 111.674 12.0724C110.983 13.9587 110.889 16.0121 111.405 17.9538C111.92 19.8954 113.019 21.6313 114.553 22.9256H114.575Z" fill="#145FF5"/>
<path d="M55.0257 40.8579H51.829C51.7483 40.8671 51.6668 40.8484 51.5982 40.8048C51.5296 40.7612 51.478 40.6954 51.452 40.6183C51.4413 40.5481 51.4514 40.4763 51.481 40.4118C51.5107 40.3472 51.5586 40.2928 51.6188 40.2553C51.6623 40.2117 60.8103 32.7121 60.948 32.5669C61.402 32.1093 61.7529 31.5598 61.9774 30.9552C62.1557 30.4565 62.2489 29.9312 62.2528 29.4015C62.2509 28.9896 62.1848 28.5806 62.0571 28.1891C61.7716 27.5293 61.2997 26.9675 60.6996 26.5728C60.0994 26.178 59.3971 25.9677 58.6791 25.9675H48.0958V29.3289H58.0847C58.324 29.3289 58.4254 29.416 58.4472 29.5467C58.4484 29.6141 58.4348 29.681 58.4072 29.7425C58.3796 29.804 58.3388 29.8586 58.2877 29.9025C58.2007 29.9896 56.6132 31.2819 55.7724 31.9716L49.3716 37.2133C48.7883 37.6931 48.3242 38.302 48.0161 38.9921C47.9803 39.0577 47.9489 39.1256 47.9218 39.1953C47.7568 39.6166 47.6684 40.0641 47.6609 40.5167C47.6609 41.4987 48.0504 42.4404 48.7437 43.1348C49.437 43.8292 50.3773 44.2193 51.3578 44.2193H62.7603V40.8579H55.0257Z" fill="#FF5A00"/>
<path d="M144.419 25.9602H140.859V44.2193H144.419V25.9602Z" fill="#FF5A00"/>
<path d="M75.54 25.9603C75.54 25.9603 75.54 35.2677 75.54 36.9738C75.5306 38.0224 75.1149 39.0263 74.3806 39.7738C73.6463 40.5212 72.6507 40.9538 71.6041 40.9801C70.5574 41.0065 69.5414 40.6246 68.7705 39.9151C67.9996 39.2056 67.534 38.2238 67.472 37.1771C67.472 34.4763 67.472 25.9167 67.472 25.9603H63.8983V36.2187C63.8983 42.0703 67.7765 44.2048 71.4951 44.2048C75.2138 44.2048 79.1571 41.7945 79.0919 36.4583C79.0919 35.9719 79.0919 25.9458 79.0919 25.9458L75.54 25.9603Z" fill="#FF5A00"/>
<path d="M87.8412 25.9602C84.1225 25.9602 80.1864 28.3778 80.2517 33.7067C80.2517 34.2004 80.2517 44.2193 80.2517 44.2193H83.8108C83.8108 44.2193 83.8108 34.9192 83.8108 33.213C83.8556 32.1879 84.2872 31.2179 85.0184 30.4991C85.7496 29.7803 86.7259 29.3662 87.7501 29.3404C88.7743 29.3146 89.7702 29.679 90.5365 30.3601C91.3029 31.0412 91.7826 31.9882 91.8788 33.0098C91.8788 35.7105 91.8788 44.2701 91.8788 44.2193H95.438V33.9681C95.4453 28.102 91.5671 25.9602 87.8412 25.9602Z" fill="#FF5A00"/>
<path d="M132.103 25.9603C131.017 25.942 129.939 26.153 128.94 26.5795C127.941 27.0061 127.043 27.6386 126.304 28.4359C125.574 27.627 124.677 26.9867 123.676 26.5592C122.675 26.1317 121.593 25.9273 120.505 25.9603C116.786 25.9603 112.85 28.3779 112.915 33.7067C112.915 34.2004 112.915 44.2193 112.915 44.2193H116.474C116.474 44.2193 116.474 34.9192 116.474 33.2131C116.572 32.2307 117.025 31.3178 117.747 30.646C118.469 29.9742 119.412 29.5897 120.397 29.5647C121.382 29.5398 122.343 29.8761 123.098 30.5104C123.854 31.1448 124.352 32.0336 124.499 33.0098C124.499 33.4381 124.499 34.0117 124.499 34.6796C124.499 36.9738 124.499 42.5858 124.499 43.9289V44.2193H128.058C128.058 44.2193 128.058 34.9192 128.058 33.2131C128.067 32.1645 128.483 31.1606 129.217 30.4131C129.952 29.6656 130.947 29.2331 131.994 29.2067C133.041 29.1803 134.057 29.5622 134.827 30.2717C135.598 30.9813 136.064 31.963 136.126 33.0098C136.126 35.7105 136.126 44.2701 136.126 44.2193H139.721V33.9681C139.721 28.102 135.821 25.9603 132.103 25.9603Z" fill="#FF5A00"/>
<path d="M104.108 25.9602C100.751 25.9602 97.2358 27.9277 96.6196 32.2257H100.208C100.462 31.3256 101.017 30.5406 101.782 30.0032C102.546 29.4657 103.472 29.2085 104.403 29.275C105.335 29.3415 106.215 29.7277 106.895 30.3683C107.575 31.0089 108.014 31.8649 108.138 32.792V32.9807L101.882 32.9299C100.428 32.9822 99.0511 33.5976 98.0409 34.6463C97.0307 35.6951 96.4662 37.0956 96.4662 38.5528C96.4662 40.0101 97.0307 41.4105 98.0409 42.4593C99.0511 43.5081 100.428 44.1234 101.882 44.1757H102.607H106.464C107.09 44.1236 107.683 43.8688 108.153 43.4497V44.2193H111.704V33.9681C111.712 28.102 107.826 25.9602 104.108 25.9602ZM108.196 39.0283C108.186 39.6972 107.914 40.3353 107.438 40.8043C106.961 41.2732 106.32 41.535 105.652 41.5331H102.172C101.745 41.5303 101.323 41.4349 100.936 41.2533C100.55 41.0718 100.207 40.8084 99.931 40.4814C99.6554 40.1543 99.4539 39.7714 99.3403 39.3589C99.2266 38.9464 99.2036 38.5141 99.2727 38.0918C99.4073 37.3892 99.7848 36.7566 100.339 36.3051C100.893 35.8537 101.588 35.6123 102.303 35.6234H108.196V39.0283Z" fill="#FF5A00"/>
</svg>
